<svg id="Capa_1" enable-background="new 0 0 512 512" height="512" viewBox="0 0 512 512" width="512" xmlns="http://www.w3.org/2000/svg"><g><g><path d="m380.332 180.062c-1.207 1.427-1.595 3.39-.897 5.124.123.304.252.574.385.774 14.4 21.27 24.48 45.71 29 72.04h1.18c8.7 0 16.58 3.52 22.28 9.22 5.551 5.551 9.035 13.171 9.213 21.601.373 17.695-14.474 32.179-32.172 32.179h-.501c-4.74 27.62-15.6 53.15-31.13 75.14l.84.84c6.15 6.15 9.23 14.21 9.23 22.28 0 7.85-2.922 15.701-8.756 21.786-12.249 12.776-32.992 12.518-45.506.001l-.358-.358c-21.99 15.53-47.52 26.39-75.14 31.13v1.181c0 8.7-3.52 16.58-9.22 22.28-5.551 5.551-13.17 9.035-21.601 9.213-17.694.374-32.179-14.473-32.179-32.172v-.501c-27.62-4.74-53.15-15.6-75.14-31.13l-.84.84c-6.15 6.15-14.21 9.23-22.28 9.23-7.85 0-15.701-2.922-21.786-8.756-12.776-12.249-12.518-32.991-.002-45.505l.358-.358c-15.53-21.991-26.39-47.521-31.13-75.141h-1.18c-8.7 0-16.58-3.52-22.28-9.22-5.551-5.551-9.035-13.171-9.213-21.601-.373-17.694 14.474-32.179 32.172-32.179h.501c4.74-27.62 15.6-53.15 31.13-75.14l-.84-.84c-6.15-6.15-9.23-14.21-9.23-22.28 0-7.85 2.922-15.7 8.756-21.786 12.249-12.777 32.992-12.518 45.507-.002l.358.358c21.99-15.53 47.52-26.39 75.14-31.13v-1.18c0-8.7 3.52-16.58 9.22-22.28 5.551-5.551 13.17-9.035 21.601-9.213 17.693-.373 32.178 14.473 32.178 32.172v.501c24.48 4.2 47.31 13.21 67.49 26.01 1.349.854 3.597 1.98 5.44 2.863 1.722.824 3.787.625 5.257-.592.44-.364.888-.715 1.343-1.052 3.757-2.781 5.12-7.702 3.322-12.016-.574-1.379-1.112-2.776-1.612-4.193-3.07-8.66-4.74-17.99-4.74-27.7 0-22.92 9.29-43.67 24.31-58.69s35.77-24.31 58.69-24.31 43.67 9.29 58.69 24.31 24.31 35.77 24.31 58.69-9.29 43.67-24.31 58.69-35.77 24.31-58.69 24.31c-7.74 0-15.24-1.06-22.34-3.05l-.06-.017c-4.469-1.233-9.139.801-11.425 4.834-.949 1.676-2.064 3.282-3.343 4.795z" fill="#baf39a"/><path d="m500.5 90.5c0 22.92-9.29 43.67-24.31 58.69s-35.77 24.31-58.69 24.31c-5.12 0-10.14-.46-15-1.36 16.91-3.08 32.03-11.29 43.69-22.95 15.02-15.02 24.31-35.77 24.31-58.69s-9.29-43.67-24.31-58.69c-11.66-11.66-26.78-19.87-43.69-22.95 4.86-.9 9.88-1.36 15-1.36 22.92 0 43.67 9.29 58.69 24.31s24.31 35.77 24.31 58.69z" fill="#9ae59c"/><path d="m432.28 267.22c-5.7-5.7-13.58-9.22-22.28-9.22h-1.18c.006.037.009.074.015.111-6.584-38.507-25.058-72.962-51.525-99.421-33.47-33.48-79.73-54.19-130.81-54.19-5.05 0-10.05.2-15 .6 45.1 3.62 85.65 23.42 115.81 53.59 33.48 33.47 54.19 79.73 54.19 130.81s-20.71 97.34-54.19 130.81c-30.16 30.17-70.71 49.97-115.81 53.59 4.95.4 9.95.6 15 .6 39.783 0 76.64-12.566 106.811-33.94-.057.042-.113.089-.171.13l.36.36c12.51 12.51 33.25 12.77 45.5 0 5.84-6.09 8.76-13.94 8.76-21.79 0-8.07-3.08-16.13-9.23-22.28l-.84-.84c-.047.066-.096.126-.144.191 15.633-22.06 26.545-47.7 31.289-75.442-.006.037-.009.074-.015.111h.5c17.7 0 32.55-14.48 32.17-32.18-.18-8.43-3.66-16.05-9.21-21.6z" fill="#9ae59c"/><path d="m226.5 444.5c-85.604 0-155-69.396-155-155 0-85.604 69.396-155 155-155 85.604 0 155 69.396 155 155 0 85.604-69.396 155-155 155z" fill="#ff8d95"/><path d="m293.5 371.5c-24.853 0-45-20.147-45-45 0-24.853 20.147-45 45-45 24.853 0 45 20.147 45 45 0 24.853-20.147 45-45 45z" fill="#ffc7ce"/><path d="m338.5 326.5c0 12.42-5.04 23.68-13.18 31.82s-19.4 13.18-31.82 13.18c-5.26 0-10.31-.9-15-2.57 6.4-2.25 12.13-5.92 16.82-10.61 8.14-8.14 13.18-19.4 13.18-31.82s-5.04-23.68-13.18-31.82c-4.69-4.69-10.42-8.36-16.82-10.61 4.69-1.67 9.74-2.57 15-2.57 12.42 0 23.68 5.04 31.82 13.18s13.18 19.4 13.18 31.82z" fill="#ffb3c0"/><path d="m193 247.5c-12.426 0-22.5-10.074-22.5-22.5 0-12.426 10.074-22.5 22.5-22.5 12.426 0 22.5 10.074 22.5 22.5 0 12.427-10.074 22.5-22.5 22.5z" fill="#ffc7ce"/><path d="m182.5 399.5c-13.807 0-25-11.193-25-25 0-13.807 11.193-25 25-25 13.807 0 25 11.193 25 25 0 13.807-11.193 25-25 25z" fill="#ffc7ce"/><path d="m207.5 374.5c0 6.9-2.8 13.16-7.32 17.68s-10.78 7.32-17.68 7.32c-5.62 0-10.82-1.86-15-5 .95-.71 1.84-1.48 2.68-2.32 4.52-4.52 7.32-10.78 7.32-17.68s-2.8-13.16-7.32-17.68c-.84-.84-1.73-1.61-2.68-2.32 4.18-3.14 9.38-5 15-5 6.9 0 13.16 2.8 17.68 7.32s7.32 10.78 7.32 17.68z" fill="#ffb3c0"/><path d="m215.5 225c0 6.22-2.52 11.84-6.59 15.91s-9.69 6.59-15.91 6.59c-5.77 0-11.02-2.17-15-5.74.31-.27.62-.56.91-.85 4.07-4.07 6.59-9.69 6.59-15.91s-2.52-11.84-6.59-15.91c-.29-.29-.6-.58-.91-.85 3.98-3.57 9.23-5.74 15-5.74 6.22 0 11.84 2.52 15.91 6.59s6.59 9.69 6.59 15.91z" fill="#ffb3c0"/><path d="m121.5 304.5c-8.284 0-15-6.716-15-15 0-8.284 6.716-15 15-15 8.284 0 15 6.716 15 15 0 8.284-6.716 15-15 15z" fill="#ffc7ce"/><g fill="#9ae59c"><path d="m402 78c-8.284 0-15-6.716-15-15 0-8.284 6.716-15 15-15 8.284 0 15 6.716 15 15 0 8.284-6.716 15-15 15z"/><path d="m422 138c-8.284 0-15-6.716-15-15 0-8.284 6.716-15 15-15 8.284 0 15 6.716 15 15 0 8.284-6.716 15-15 15z"/></g></g><g><g><path d="m226.5 452c-89.602 0-162.5-72.897-162.5-162.5 0-21.885 4.278-43.121 12.716-63.12 1.611-3.817 6.009-5.604 9.826-3.995 3.816 1.61 5.605 6.01 3.995 9.825-7.655 18.144-11.537 37.419-11.537 57.29 0 81.332 66.168 147.5 147.5 147.5 81.333 0 147.5-66.168 147.5-147.5s-66.168-147.5-147.5-147.5c-47.192 0-91.901 22.86-119.598 61.152-2.428 3.356-7.116 4.109-10.473 1.682-3.356-2.428-4.109-7.116-1.682-10.473 30.51-42.179 79.763-67.361 131.753-67.361 89.603 0 162.5 72.897 162.5 162.5s-72.897 162.5-162.5 162.5z"/></g><g><path d="m226.517 512c-10.078 0-19.63-3.933-26.979-11.127-6.251-6.121-10.324-14.188-11.605-22.746-24.18-4.903-46.818-14.275-67.445-27.922-6.782 5.225-15.048 8.055-23.749 8.055-10.103 0-19.684-3.851-26.977-10.842-7.494-7.185-11.682-16.957-11.793-27.52-.092-8.751 2.734-17.339 7.884-24.298-13.659-20.621-23.044-43.253-27.96-67.429-8.489-1.102-16.332-4.942-22.478-11.088-7.144-7.145-11.195-16.644-11.408-26.747-.219-10.38 3.73-20.252 11.12-27.8 6.121-6.25 14.187-10.322 22.744-11.604 4.904-24.181 14.276-46.818 27.922-67.444-5.225-6.782-8.055-15.048-8.055-23.749 0-10.103 3.85-19.683 10.842-26.977 7.185-7.494 16.958-11.682 27.521-11.793 8.745-.138 17.339 2.734 24.298 7.884 20.621-13.659 43.252-23.044 67.428-27.96 1.101-8.489 4.941-16.331 11.087-22.478 7.144-7.143 16.642-11.194 26.746-11.408 10.391-.227 20.254 3.73 27.801 11.12 6.25 6.12 10.323 14.187 11.604 22.744 22.921 4.654 44.574 13.382 64.441 25.984.318.201 1.223.738 3.259 1.748.101-.075.2-.15.301-.226.985-.729 1.331-1.976.861-3.104-.619-1.484-1.213-3.026-1.761-4.579-3.426-9.667-5.166-19.83-5.166-30.194 0-24.174 9.413-46.9 26.506-63.993 17.094-17.093 39.82-26.507 63.994-26.507s46.9 9.414 63.993 26.508c1.786 1.785 3.524 3.675 5.164 5.615 2.674 3.163 2.276 7.896-.888 10.569s-7.896 2.276-10.569-.888c-1.369-1.62-2.82-3.198-4.312-4.689-14.261-14.261-33.221-22.115-53.388-22.115s-39.127 7.854-53.387 22.114c-14.259 14.259-22.113 33.219-22.113 53.386 0 8.652 1.45 17.129 4.31 25.194.458 1.298.949 2.576 1.464 3.81 3.123 7.497.744 16.104-5.781 20.933-.347.257-.688.524-1.024.803-3.688 3.053-8.899 3.673-13.275 1.578-2.806-1.343-4.838-2.419-6.213-3.289-19.858-12.597-41.641-20.992-64.748-24.957-3.6-.617-6.231-3.739-6.231-7.392v-.501c0-6.646-2.745-13.146-7.532-17.832-4.642-4.546-10.699-6.943-16.99-6.842-6.217.132-12.062 2.624-16.456 7.019-4.53 4.528-7.024 10.557-7.024 16.976v1.18c0 3.652-2.631 6.774-6.231 7.392-26.117 4.482-50.369 14.53-72.082 29.865-2.986 2.108-7.057 1.758-9.637-.83l-.357-.358c-4.693-4.693-11.198-7.336-17.932-7.278-6.496.068-12.48 2.616-16.851 7.175-4.301 4.486-6.67 10.381-6.67 16.596 0 6.412 2.498 12.441 7.034 16.978l.839.839c2.582 2.582 2.929 6.648.823 9.63-15.334 21.713-25.382 45.964-29.864 72.082-.618 3.6-3.739 6.231-7.392 6.231h-.501c-6.646 0-13.146 2.745-17.832 7.532-4.545 4.642-6.975 10.675-6.841 16.988.131 6.218 2.623 12.062 7.018 16.457 4.528 4.527 10.557 7.021 16.976 7.021h1.18c3.653 0 6.774 2.631 7.392 6.231 4.482 26.117 14.53 50.369 29.864 72.083 2.106 2.982 1.758 7.048-.823 9.63l-.358.358c-4.7 4.7-7.355 11.238-7.285 17.938.068 6.496 2.617 12.479 7.175 16.85 4.486 4.301 10.38 6.67 16.596 6.67 6.412 0 12.441-2.498 16.978-7.033l.839-.84c2.582-2.58 6.648-2.93 9.63-.822 21.713 15.334 45.965 25.382 72.082 29.864 3.6.617 6.231 3.739 6.231 7.392v.501c0 6.646 2.746 13.146 7.533 17.833 4.641 4.544 10.695 6.966 16.988 6.841 6.217-.132 12.061-2.624 16.456-7.019 4.529-4.528 7.023-10.558 7.023-16.977v-1.18c0-3.652 2.631-6.774 6.231-7.392 26.117-4.482 50.369-14.53 72.082-29.864 2.977-2.104 7.038-1.762 9.622.815l.358.357c4.708 4.709 11.278 7.39 17.945 7.294 6.496-.068 12.48-2.616 16.851-7.175 4.301-4.486 6.67-10.381 6.67-16.597 0-6.412-2.498-12.44-7.033-16.976l-.837-.837c-2.585-2.582-2.934-6.649-.826-9.633 15.335-21.714 25.383-45.966 29.865-72.083.617-3.601 3.739-6.231 7.392-6.231h.501c6.646 0 13.146-2.745 17.832-7.532 4.545-4.642 6.975-10.675 6.842-16.988-.132-6.217-2.624-12.062-7.019-16.457-4.529-4.528-10.559-7.022-16.977-7.022h-1.18c-3.652 0-6.773-2.631-7.392-6.23-4.275-24.903-13.635-48.153-27.819-69.105-.447-.673-.804-1.364-1.129-2.17-1.729-4.289-.913-9.183 2.124-12.774.962-1.138 1.817-2.364 2.544-3.647 4.004-7.064 12.204-10.506 19.946-8.368 6.65 1.863 13.485 2.796 20.405 2.796 20.167 0 39.127-7.854 53.386-22.113 14.262-14.261 22.115-33.221 22.115-53.388 0-7.003-.957-13.936-2.844-20.604-1.128-3.985 1.189-8.131 5.175-9.259 3.986-1.13 8.131 1.19 9.259 5.175 2.263 7.998 3.41 16.304 3.41 24.688 0 24.174-9.414 46.9-26.507 63.994-17.093 17.093-39.819 26.506-63.993 26.506-8.289 0-16.486-1.12-24.364-3.328-1.132-.311-2.329.223-2.937 1.294-.889 1.57-1.896 3.088-3.004 4.529 13.616 20.567 22.998 43.198 27.91 67.333 8.488 1.102 16.331 4.942 22.478 11.088 7.145 7.146 11.195 16.645 11.408 26.747.219 10.38-3.73 20.252-11.12 27.8-6.12 6.25-14.186 10.322-22.744 11.604-4.903 24.18-14.275 46.817-27.923 67.445 5.227 6.782 8.056 15.048 8.056 23.748 0 10.104-3.851 19.684-10.842 26.978-7.186 7.494-16.959 11.683-27.522 11.793-.137.001-.275.002-.412.002-8.608 0-17.034-2.818-23.884-7.887-20.622 13.66-43.251 23.044-67.428 27.961-1.102 8.488-4.942 16.331-11.089 22.478-7.144 7.144-16.643 11.194-26.746 11.407-.273.005-.547.008-.82.008z"/></g><g><path d="m293.5 379c-28.948 0-52.5-23.552-52.5-52.5s23.552-52.5 52.5-52.5 52.5 23.552 52.5 52.5-23.552 52.5-52.5 52.5zm0-90c-20.678 0-37.5 16.822-37.5 37.5s16.822 37.5 37.5 37.5 37.5-16.822 37.5-37.5-16.822-37.5-37.5-37.5z"/></g><g><path d="m193 255c-16.542 0-30-13.458-30-30s13.458-30 30-30 30 13.458 30 30-13.458 30-30 30zm0-45c-8.271 0-15 6.729-15 15s6.729 15 15 15 15-6.729 15-15-6.729-15-15-15z"/></g><g><path d="m196 311c-5.514 0-10-4.486-10-10s4.486-10 10-10 10 4.486 10 10-4.486 10-10 10z"/></g><g><path d="m286 231c-5.514 0-10-4.486-10-10s4.486-10 10-10 10 4.486 10 10-4.486 10-10 10z"/></g><g><path d="m286 331c-5.514 0-10-4.486-10-10s4.486-10 10-10 10 4.486 10 10-4.486 10-10 10z"/></g><g><path d="m121.5 312c-12.407 0-22.5-10.094-22.5-22.5s10.093-22.5 22.5-22.5 22.5 10.094 22.5 22.5-10.093 22.5-22.5 22.5zm0-30c-4.136 0-7.5 3.364-7.5 7.5s3.364 7.5 7.5 7.5 7.5-3.364 7.5-7.5-3.364-7.5-7.5-7.5z"/></g><g><path d="m182.5 407c-17.92 0-32.5-14.579-32.5-32.5s14.58-32.5 32.5-32.5 32.5 14.579 32.5 32.5-14.579 32.5-32.5 32.5zm0-50c-9.649 0-17.5 7.851-17.5 17.5s7.851 17.5 17.5 17.5 17.5-7.851 17.5-17.5-7.85-17.5-17.5-17.5z"/></g><g><path d="m402 85.5c-12.406 0-22.5-10.094-22.5-22.5s10.094-22.5 22.5-22.5 22.5 10.094 22.5 22.5-10.094 22.5-22.5 22.5zm0-30c-4.136 0-7.5 3.364-7.5 7.5s3.364 7.5 7.5 7.5 7.5-3.364 7.5-7.5-3.364-7.5-7.5-7.5z"/></g><g><path d="m422 145.5c-12.406 0-22.5-10.094-22.5-22.5s10.094-22.5 22.5-22.5 22.5 10.094 22.5 22.5-10.094 22.5-22.5 22.5zm0-30c-4.136 0-7.5 3.364-7.5 7.5s3.364 7.5 7.5 7.5 7.5-3.364 7.5-7.5-3.364-7.5-7.5-7.5z"/></g></g></g></svg>