<svg id="Capa_1" enable-background="new 0 0 512 512" height="512" viewBox="0 0 512 512" width="512" xmlns="http://www.w3.org/2000/svg"><g><g><path d="m299.175 290.66h91.957v29.986h-91.957z" fill="#736572" transform="matrix(.707 .707 -.707 .707 317.223 -154.537)"/><path d="m130.999 306.36c-59.332-59.332-59.332-155.529 0-214.861 59.332-59.332 155.529-59.332 214.861 0 59.332 59.332 59.332 155.529 0 214.861-59.332 59.332-155.529 59.332-214.861 0z" fill="#cbb0f2"/><path d="m345.857 306.364c-3.578 3.578-7.297 6.944-11.123 10.09 22.939-27.931 34.408-62.126 34.408-96.308.007-38.884-14.828-77.761-44.498-107.431s-68.547-44.505-107.431-44.498c-34.182 0-68.377 11.469-96.308 34.408 3.147-3.825 6.512-7.545 10.09-11.123 29.663-29.663 68.554-44.498 107.431-44.498 38.884-.007 77.76 14.828 107.431 44.498 29.67 29.67 44.505 68.547 44.498 107.431 0 38.877-14.835 77.767-44.498 107.431z" fill="#b696ef"/><path d="m378.372 379.865-14.136-14.136c-3.903-3.903-3.903-10.232 0-14.136l26.858-26.858c3.903-3.903 10.232-3.903 14.136 0l14.136 14.136z" fill="#e29a6c"/><path d="m419.368 338.876-21.213 21.213-14.142-14.142c-3.903-3.903-10.225-3.903-14.128 0l21.213-21.213c3.903-3.903 10.225-3.903 14.128 0z" fill="#ce845c"/><path d="m428.478 447.866-50.106-68.001 40.993-40.993 68.001 50.106c20.749 15.289 23.022 45.461 4.797 63.685-18.224 18.225-48.396 15.952-63.685-4.797z" fill="#ffe077"/><path d="m492.157 452.664c-3.755 3.755-8.011 6.64-12.551 8.662 7.849-17.465 3.019-38.997-13.456-51.131l-67.995-50.106 21.213-21.213 67.995 50.106c20.754 15.28 23.024 45.453 4.794 63.682z" fill="#ffd05b"/><path d="m152.203 285.157c-47.622-47.622-47.622-124.832 0-172.454 47.622-47.622 124.832-47.622 172.454 0 47.622 47.622 47.622 124.832 0 172.454-47.622 47.622-124.832 47.622-172.454 0z" fill="#fff"/><path d="m202.793 249.708-48.269 11.773c-6.942 1.693-14.23 1.558-21.05-.575-9.15-2.862-18.881-4.406-28.974-4.406-53.572 0-97 43.428-97 97 0 53.572 43.428 97 97 97 53.572 0 97-43.428 97-97 0-9.757-1.443-19.177-4.125-28.06-2.033-6.733-2.147-13.899-.481-20.731l11.941-48.959c.889-3.642-2.399-6.931-6.042-6.042z" fill="#baf39a"/><path d="m196.89 304.71c-1.66 6.83-1.55 14 .49 20.73 1.34 4.44 2.37 9.02 3.06 13.7.7 4.68 1.06 9.48 1.06 14.36 0 26.78-10.86 51.04-28.41 68.59s-41.81 28.41-68.59 28.41c-5.1 0-10.11-.39-15-1.16 20.78-3.22 39.38-13.04 53.59-27.25 17.55-17.55 28.41-41.81 28.41-68.59 0-4.88-.36-9.68-1.06-14.36-.69-4.68-1.72-9.26-3.06-13.7-2.04-6.73-2.15-13.9-.49-20.73l11.95-48.96c.02-.07.03-.14.04-.21l23.91-5.83c3.65-.89 6.93 2.4 6.05 6.04z" fill="#9ae59c"/><g fill="#ffd18d"><path d="m264 272.5c-12.426 0-22.5-10.074-22.5-22.5 0-12.426 10.074-22.5 22.5-22.5 12.426 0 22.5 10.074 22.5 22.5 0 12.426-10.074 22.5-22.5 22.5z"/><path d="m286 198.5c-12.426 0-22.5-10.074-22.5-22.5 0-12.426 10.074-22.5 22.5-22.5 12.426 0 22.5 10.074 22.5 22.5 0 12.426-10.074 22.5-22.5 22.5z"/><path d="m193 220.5c-20.711 0-37.5-16.789-37.5-37.5 0-20.711 16.789-37.5 37.5-37.5 20.711 0 37.5 16.789 37.5 37.5 0 20.711-16.789 37.5-37.5 37.5z"/></g><path d="m104.529 386.041c-23.902 0-32.5-14.551-32.5-32.5 0-17.949 8.667-32.5 32.5-32.5 23.833 0 32.5 14.551 32.5 32.5 0 17.95-8.667 32.5-32.5 32.5z" fill="#fcf1f2"/></g><g><path d="m511.859 419.149c-1.087-14.432-8.393-27.632-20.043-36.216l-67.545-49.77-13.738-13.738c-5.974-5.973-15.227-6.716-22.017-2.227l-22.561-22.561c20.698-27.458 31.904-60.724 31.904-95.716 0-42.585-16.584-82.622-46.695-112.734-14.918-14.917-32.285-26.544-51.614-34.557-3.827-1.583-8.215.23-9.801 4.057s.23 8.215 4.057 9.801c17.502 7.254 33.232 17.787 46.751 31.308 56.314 56.313 56.314 147.942 0 204.254-35.008 35.009-84.213 49.453-132.42 39.107-.702-5.497-1.831-10.923-3.397-16.233 11.02 2.956 22.27 4.404 33.46 4.404 33.826-.001 67.102-13.216 91.761-37.874 50.47-50.47 50.469-132.591-.001-183.062-50.47-50.469-132.59-50.47-183.062.001-37.816 37.817-48.138 94.565-27.41 142.683-4.945-.712-9.95-1.082-14.989-1.082-.522 0-1.042.012-1.562.02-19.543-52.869-6.697-112.156 33.365-152.217 32.774-32.776 79.689-47.886 125.506-40.409 4.076.662 7.942-2.106 8.609-6.195.667-4.088-2.106-7.942-6.195-8.609-50.562-8.25-102.349 8.427-138.527 44.607-43.256 43.257-57.752 106.817-38.174 164.192-49.574 8.132-87.521 51.269-87.521 103.11 0 36.917 19.8 71.473 51.672 90.182 3.574 2.096 8.169.9 10.265-2.671 2.097-3.572.901-8.168-2.671-10.265-27.304-16.027-44.266-45.626-44.266-77.246 0-49.351 40.149-89.5 89.5-89.5 9.118 0 18.113 1.367 26.734 4.063 8.012 2.506 16.68 2.751 25.067.703l44.273-10.798-10.966 44.963c-2.007 8.223-1.804 16.756.587 24.677 2.524 8.363 3.805 17.074 3.805 25.892 0 49.351-40.149 89.5-89.5 89.5-4.992 0-10-.414-14.886-1.231-4.086-.687-7.952 2.075-8.635 6.16-.683 4.086 2.075 7.951 6.16 8.635 5.701.953 11.542 1.437 17.36 1.437 56.913 0 103.34-45.735 104.473-102.381 9.721 1.817 19.585 2.733 29.453 2.732 13.981 0 27.966-1.823 41.52-5.466 19.582-5.261 37.978-14.29 54.175-26.455l22.586 22.586c-4.488 6.789-3.747 16.043 2.227 22.017l13.738 13.738 49.77 67.545c8.584 11.65 21.784 18.956 36.216 20.043 1.25.095 2.498.141 3.742.141 13.11 0 25.723-5.186 35.069-14.532 10.233-10.236 15.479-24.381 14.391-38.813zm-359.112-164.962c-4.823 1.176-9.751 1.239-14.413.229-24.711-44.49-17.001-100.245 19.173-136.418 44.62-44.62 117.225-44.623 161.847.001 44.622 44.621 44.621 117.226-.001 161.847-30.198 30.201-75.005 40.97-115.497 28.182.1-.517.2-1.035.325-1.549l11.94-48.959c1.044-4.276-.191-8.688-3.305-11.801-3.112-3.114-7.523-4.35-11.801-3.305zm198.417 57.47c1.773-1.773 3.494-3.583 5.173-5.423l21.322 21.322-10.596 10.596-21.336-21.337c1.846-1.68 3.668-3.389 5.437-5.158zm18.376 45.233 26.857-26.857c1.398-1.038 2.131-1.038 3.528 0l8.832 8.832-30.386 30.386-8.832-8.832c-.886-.95-.871-2.584.001-3.529zm117.32 90.463c-7.139 7.14-17.01 10.798-27.076 10.041-10.068-.759-19.277-5.855-25.267-13.984l-46.281-62.809 31.873-31.873 62.809 46.281c8.129 5.989 13.226 15.198 13.984 25.267.758 10.068-2.901 19.938-10.042 27.077z"/><path d="m264 279.993c16.542 0 30-13.458 30-30s-13.458-30-30-30-30 13.458-30 30 13.458 30 30 30zm0-45c8.271 0 15 6.729 15 15s-6.729 15-15 15-15-6.729-15-15 6.729-15 15-15z"/><path d="m286 205.993c16.542 0 30-13.458 30-30s-13.458-30-30-30-30 13.458-30 30 13.458 30 30 30zm0-45c8.271 0 15 6.729 15 15s-6.729 15-15 15-15-6.729-15-15c0-8.272 6.729-15 15-15z"/><path d="m238 182.993c0-24.814-20.187-45-45-45s-45 20.187-45 45 20.187 45 45 45 45-20.187 45-45zm-45 30c-16.542 0-30-13.458-30-30s13.458-30 30-30 30 13.458 30 30-13.458 30-30 30z"/><path d="m55.704 391.689c-2.929 2.93-2.929 7.678 0 10.607 1.465 1.464 3.385 2.196 5.304 2.196s3.839-.732 5.304-2.196l14.723-14.723c4.505 2.783 9.859 4.624 15.965 5.443v11.993c0 4.143 3.357 7.5 7.5 7.5s7.5-3.357 7.5-7.5v-11.993c6.106-.819 11.46-2.66 15.965-5.443l14.723 14.723c1.465 1.464 3.385 2.196 5.304 2.196s3.839-.732 5.304-2.196c2.929-2.93 2.929-7.678 0-10.607l-14.725-14.725c2.781-4.505 4.62-9.858 5.438-15.963h11.999c4.143 0 7.5-3.357 7.5-7.5s-3.357-7.5-7.5-7.5h-12.001c-.819-6.103-2.66-11.455-5.442-15.957l14.731-14.731c2.929-2.93 2.929-7.678 0-10.607-2.93-2.928-7.678-2.928-10.607 0l-14.733 14.733c-4.503-2.779-9.854-4.619-15.955-5.437v-12.008c0-4.143-3.357-7.5-7.5-7.5s-7.5 3.357-7.5 7.5v12.008c-6.102.818-11.453 2.658-15.955 5.437l-14.733-14.733c-2.93-2.928-7.678-2.928-10.607 0-2.929 2.93-2.929 7.678 0 10.607l14.731 14.731c-2.782 4.503-4.622 9.855-5.442 15.957h-12.003c-4.143 0-7.5 3.357-7.5 7.5s3.357 7.5 7.5 7.5h11.999c.818 6.105 2.657 11.459 5.438 15.963zm48.796-63.181c16.788 0 24.963 8.147 24.997 24.9 0 .031-.005.061-.005.092 0 .033.005.065.005.098-.03 16.693-8.148 24.84-24.806 24.903-.064-.002-.126-.01-.191-.01s-.127.008-.191.01c-16.689-.062-24.809-8.236-24.809-24.993 0-16.822 8.178-25 25-25z"/><path d="m104.5 363.493c5.514 0 10-4.486 10-10s-4.486-10-10-10-10 4.486-10 10 4.486 10 10 10z"/></g></g></svg>